<svg xmlns="http://www.w3.org/2000/svg" fill="none" viewBox="0 0 40 40"><path fill="#1072EB" d="M22.988 8.283c0-.689.856-1.04 1.371-.564l11.392 10.545a.762.762 0 0 1 0 1.127L24.359 29.936c-.515.476-1.37.124-1.37-.564v-5.068c-7.787.169-13.604 2.794-17.527 7.878-.518.671-1.62.193-1.443-.626 2.046-9.473 8.515-16.445 18.97-18.088V8.283z"/><path fill="#56CCFE" d="M24.36 7.72c-.516-.477-1.372-.126-1.372.563v5.185C12.534 15.111 6.065 22.084 4.02 31.556a.736.736 0 0 0 .138.626C6.478 27.59 13.12 19 22.5 19h13.48a.762.762 0 0 0-.23-.736L24.36 7.719z"/></svg>